<?xml version="1.0" encoding="utf-8"?>
<!-- Generator: Adobe Illustrator 27.3.1, SVG Export Plug-In . SVG Version: 6.00 Build 0)  -->
<svg version="1.1" id="Layer_1" xmlns="http://www.w3.org/2000/svg" xmlns:xlink="http://www.w3.org/1999/xlink" x="0px" y="0px"
	 viewBox="0 0 2500 2500" style="enable-background:new 0 0 2500 2500;" xml:space="preserve">
<style type="text/css">
	.st0{stroke:#231F20;stroke-miterlimit:10;}
	.st1{display:none;}
	.st2{fill:url(#SVGID_1_);}
	.st3{fill:#36C6F4;}
	.st4{fill:#32B2EF;}
	.st5{fill:#2063DB;}
	.st6{fill:#2577E0;}
	.st7{fill:#5A57E2;}
	.st8{fill:#4554DE;}
	.st9{fill:#298AE5;}
	.st10{fill:#2D9EEA;}
</style>
<rect class="st0" width="2500" height="2500"/>
<rect class="st1" width="2500" height="2500"/>
<g>
	<g>
		<polygon class="st3" points="1095.9,1250.01 841.26,1250.01 323.69,721.32 578.42,721.32 1079.77,1233.56 		"/>
		<polygon class="st4" points="1095.9,1250.01 1042.19,1304.87 789.1,1563.29 534.37,1563.29 841.01,1250.01 		"/>
	</g>
	<g>
		<polygon class="st5" points="1906.27,969.82 1626.73,1250.01 1369.71,1250.01 1393.94,1225.7 1649.25,969.82 		"/>
		<polygon class="st6" points="2176.31,1800.98 1919.2,1800.98 1413.43,1293.82 1369.71,1250.01 1626.73,1250.01 		"/>
	</g>
	<g>
		<polygon class="st7" points="1232.82,946.61 1232.82,1204.36 1072.08,1043.34 444.98,414.59 702.04,414.59 		"/>
		<polygon class="st8" points="1840.94,594.7 1393.39,1043.34 1232.82,1204.36 1232.82,946.61 1583.82,594.7 		"/>
	</g>
	<g>
		<polygon class="st9" points="2020.6,2085.42 1763.54,2085.42 1232.99,1553.56 1232.99,1295.81 1393.5,1456.66 		"/>
		<polygon class="st10" points="1232.99,1295.81 1232.99,1553.56 1232.76,1553.33 881.76,1905.3 624.64,1905.3 1072.2,1456.66 
			1232.82,1295.64 		"/>
	</g>
</g>
</svg>
